<svg width="18" height="24" viewBox="0 0 27 27" fill="none" xmlns="http://www.w3.org/2000/svg">
<path d="M26.125 2.625V10.5C26.125 11.4674 25.3424 12.25 24.375 12.25H16.5C15.5326 12.25 14.75 11.4674 14.75 10.5C14.75 9.53258 15.5326 8.75 16.5 8.75H19.9666C18.3277 6.57891 15.742 5.26203 12.9885 5.26203C8.17109 5.26203 4.25 9.18203 4.25 14C4.25 18.818 8.17055 22.7391 12.9891 22.7391C14.8966 22.7391 16.7095 22.1359 18.2325 20.9923C19.0102 20.4165 20.1039 20.5685 20.683 21.341C21.2622 22.1154 21.1069 23.2124 20.3344 23.7915C18.2 25.3928 15.6663 26.2448 12.9954 26.2448C6.24609 26.2445 0.75 20.7484 0.75 14C0.75 7.25156 6.24609 1.75547 12.9945 1.75547C16.7762 1.75547 20.3227 3.53117 22.625 6.46516V2.625C22.625 1.65758 23.4076 0.875 24.375 0.875C25.3424 0.875 26.125 1.65758 26.125 2.625Z" fill="white"/>
</svg>