<svg width="18" height="16" viewBox="0 0 24 21" fill="none" xmlns="http://www.w3.org/2000/svg">
<path d="M23.3333 18.3748H21.3333V4.65506C21.3333 3.53738 20.4375 2.62478 19.3333 2.62478L14.6667 2.62519V5.24978H18.6667V20.9998H23.3333C23.7031 20.9998 24 20.7075 24 20.3804V19.1049C24 18.666 23.7042 18.3748 23.3333 18.3748ZM11.6792 0.0410852L3.67917 2.08161C3.04583 2.23554 2.66667 2.779 2.66667 3.39916V18.3748H0.666667C0.296875 18.3748 0 18.667 0 18.9941V20.2697C0 20.7086 0.296875 20.9998 0.666667 20.9998H13.3333V1.35863C13.3333 0.476794 12.5208 -0.174247 11.6792 0.0410852ZM9.66667 11.8123C9.11458 11.8123 8.66667 11.2229 8.66667 10.5367C8.66667 9.814 9.11458 9.26111 9.66667 9.26111C10.2188 9.26111 10.6667 9.77791 10.6667 10.4998C10.6667 11.2217 10.2208 11.8123 9.66667 11.8123Z" fill="white"/>
</svg>