<svg width="18" height="24" viewBox="0 0 24 24" fill="none" xmlns="http://www.w3.org/2000/svg">
<path d="M22.0594 19.9406C22.6453 20.5266 22.6453 21.4734 22.0594 22.0594C21.4734 22.6453 20.5266 22.6453 19.9406 22.0594L19.3172 21.4781C17.325 23.0578 14.775 24 11.9578 24C9.225 24 6.675 23.0578 4.64156 21.4781L4.06078 22.0594C3.47484 22.6453 2.52516 22.6453 1.93922 22.0594C1.35375 21.4734 1.35375 20.5266 1.93922 19.9406L2.52 19.3172C0.940781 17.325 0 14.775 0 11.9578C0 9.225 0.940781 6.675 2.52 4.64156L1.93922 4.06078C1.35375 3.47484 1.35375 2.52516 1.93922 1.93922C2.52516 1.35375 3.47484 1.35375 4.06078 1.93922L4.64156 2.52C6.675 0.940781 9.225 0 11.9578 0C14.775 0 17.325 0.940781 19.3172 2.52L19.9406 1.93922C20.5266 1.35375 21.4734 1.35375 22.0594 1.93922C22.6453 2.52516 22.6453 3.47484 22.0594 4.06078L21.4781 4.64156C23.0578 6.675 24 9.225 24 11.9578C24 14.775 23.0578 17.325 21.4781 19.3172L22.0594 19.9406ZM14.4984 16.6172C13.7531 17.0203 12.9047 17.25 11.9578 17.25C11.0953 17.25 10.2469 17.0203 9.50156 16.6172L6.7875 19.3359C8.25469 20.3859 10.0547 21 11.9578 21C13.9453 21 15.7453 20.3859 17.2125 19.3359L14.4984 16.6172ZM21 11.9578C21 10.0547 20.3859 8.25469 19.3359 6.7875L16.6172 9.50156C17.0203 10.2469 17.25 11.0953 17.25 12C17.25 12.9047 17.0203 13.7531 16.6172 14.4984L19.3359 17.2125C20.3859 15.7453 21 13.9453 21 12V11.9578ZM11.9578 2.95781C10.0547 2.95781 8.25469 3.61594 6.7875 4.66406L9.50156 7.38281C10.2469 6.97969 11.0953 6.70781 11.9578 6.70781C12.9047 6.70781 13.7531 6.97969 14.4984 7.38281L17.2125 4.66406C15.7453 3.61594 13.9453 2.95781 12 2.95781H11.9578ZM7.38281 14.4984C6.97969 13.7531 6.70781 12.9047 6.70781 11.9578C6.70781 11.0953 6.97969 10.2469 7.38281 9.50156L4.66406 6.7875C3.61594 8.25469 2.95781 10.0547 2.95781 11.9578C2.95781 13.9453 3.61594 15.7453 4.66406 17.2125L7.38281 14.4984ZM11.9578 9.70781C10.7578 9.70781 9.70781 10.7578 9.70781 11.9578C9.70781 13.2422 10.7578 14.2078 11.9578 14.2078C13.2422 14.2078 14.25 13.2422 14.25 11.9578C14.25 10.7578 13.2422 9.70781 11.9578 9.70781Z" fill="white"/>
</svg>